<svg xmlns="http://www.w3.org/2000/svg" width="84" height="84" viewBox="0 0 84 84">
    <g fill="none" fill-rule="nonzero">
        <path fill="#000" d="M31.675 76.972a25.139 25.139 0 0 1-2.97-1.171c-2.637-1.46-4.983-2.123-7.102.996-.905 1.341-2.474 1.097-3.687-.06a4414.446 4414.446 0 0 0-10.35-9.907c-1.543-1.495-1.806-3.114-.064-4.45 2.257-1.724 2.564-3.488 1.02-5.846-.698-1.076-.99-2.436-1.515-3.902-1.252 0-2.558.05-3.86 0C1.39 52.552.405 51.636.4 49.797v-14.95c0-2.124 1.257-3.17 3.158-2.881 2.865.438 4.241-.773 4.761-3.439.081-.494.267-.965.545-1.38 1.281-1.75.772-2.99-.743-4.396-2.475-2.277-2.415-3.18-.114-5.512a1641.82 1641.82 0 0 1 9.266-9.334c2.034-2.028 3.157-2.173 4.95-.08 1.608 1.89 3.102 2.417 5.191.922a4.857 4.857 0 0 1 2.044-.837c1.98-.294 2.336-1.495 2.277-3.304C31.616.998 32.289.405 35.828.4h12.374c3.519 0 4.073.588 4.083 4.25v2.403c1.208.473 2.282.723 3.168 1.27 2.643 1.625 4.84 1.735 6.874-1.09.95-1.321 2.475-1.137 3.688.05 3.573 3.564 7.13 7.142 10.67 10.734 1.263 1.28 1.416 2.86 0 3.897-2.637 1.909-2.652 3.947-1.078 6.478.594.962.846 2.138 1.36 3.489h3.302c2.54.07 3.296.857 3.311 3.533.027 4.565.027 9.13 0 13.695 0 2.651-.767 3.419-3.346 3.488-1.064.03-2.123 0-3.241 0a21.517 21.517 0 0 1-1.124 2.856c-1.544 2.726-2.222 5.163.955 7.396.555.388.574 2.77-.025 3.403-3.519 3.708-7.255 7.202-10.997 10.685-1.247 1.161-2.727.902-3.692-.404-1.718-2.332-3.589-2.766-5.984-1.076a4.93 4.93 0 0 1-2.06.797c-1.642.235-1.786 1.266-1.786 2.652 0 4.355-.376 4.694-4.623 4.694H35.78c-3.465 0-4.054-.618-4.074-4.017-.034-.862-.03-1.764-.03-2.611zM19.98 71.988c.405-.33.786-.69 1.138-1.076 1.648-2.138 3.435-2.492 5.747-.892a14.166 14.166 0 0 0 4.499 1.993c4.994 1.241 5.013 1.171 5.315 5.98 0 .145.154.275.263.469h10.26c.06-.498.124-.797.138-1.116.169-4.486.263-4.565 4.663-5.253a7.883 7.883 0 0 0 3.232-1.126c3.271-2.243 6.276-3.115 8.458.942l7.712-7.62a6.562 6.562 0 0 0-.911-.997c-2.213-1.72-2.564-3.558-.881-5.98a17.538 17.538 0 0 0 2.079-4.754c1.806-5.697 1.346-4.74 6.32-4.984.134 0 .262-.164.41-.26v-10.35a9.247 9.247 0 0 0-1.623-.085c-2.707.37-4.113-.782-4.677-3.488a22.31 22.31 0 0 0-1.94-5.078c-2.272-4.675-2.712-3.922 1.148-8.009.09-.094.06-.289.03-.104l-7.375-7.65c-.379.284-.732.603-1.054.952-1.697 2.207-3.514 2.611-5.94.947-1.46-.997-3.25-1.595-4.949-2.168-5.083-1.695-4.578-1.092-4.751-6.26 0-.14-.149-.274-.262-.468h-10.33a9.112 9.112 0 0 0-.094 1.605c.352 2.68-.648 4.196-3.41 4.749a19.174 19.174 0 0 0-5.048 1.954c-4.841 2.541-4.188 2.491-7.954-1.102-.094-.09-.282-.09-.203-.07l-7.568 7.376c.342.444.72.859 1.129 1.24 2.128 1.675 2.474 3.49.826 5.787a12.599 12.599 0 0 0-1.856 4.041c-.955 3.658-1.93 7.112-7.043 5.552v10.89c.596.076 1.197.101 1.797.074 2.623-.354 3.915.837 4.509 3.384a25.352 25.352 0 0 0 2.039 5.312c2.207 4.445 2.598 3.942-1.139 7.794a1.25 1.25 0 0 0-.178.399c2.45 2.452 4.89 4.894 7.474 7.47v-.02z"/>
        <path fill="#42A834" d="M49.81 26.12c0 1.989.07 3.534 0 5.085-.249 4.736-3.249 7.797-7.633 7.847-4.45.05-7.61-3.091-7.855-7.877-.08-1.526 0-3.061 0-4.736-4.094 1.66-7.449 9.174-4.5 15.177a18.617 18.617 0 0 0 5.55 6.46c2.81 2.078 4.405 4.205 3.915 7.808-.295 2.197-.035 4.473-.085 6.7-.03 1.49-.655 2.613-2.33 2.648-1.8.035-2.73-1.173-2.5-2.718.835-5.845-1.27-9.805-5.754-13.965-7.43-6.888-6.204-18.97 1.5-25.594a36.543 36.543 0 0 1 4.78-3.578c.81-.497 2.184-.835 2.91-.472.724.363 1.299 1.675 1.359 2.61.19 2.717.08 5.466.1 8.19 0 3.185.775 4.377 2.75 4.412 2.07.035 2.874-1.232 2.884-4.552 0-2.649-.105-5.308.065-7.952.065-.949.575-2.36 1.27-2.653.845-.353 2.295-.05 3.135.497 4.585 2.981 8.644 6.46 10.229 12.036 2.11 7.38-.25 14.994-6.63 19.625-2.464 1.784-3.499 3.658-3.164 6.58a28.825 28.825 0 0 1 0 4.97c-.085 1.46-.76 2.584-2.435 2.58-1.675-.006-2.4-1.05-2.425-2.56-.06-3.31-.14-6.63 0-9.94a4.495 4.495 0 0 1 1.445-2.668c1.255-1.193 2.79-2.083 4.135-3.19a13.082 13.082 0 0 0 4.782-10.56 13.094 13.094 0 0 0-5.497-10.21z"/>
    </g>
</svg>
