<svg xmlns="http://www.w3.org/2000/svg" width="80" height="80" viewBox="0 0 80 80">
    <g fill="none" fill-rule="nonzero">
        <path fill="#42A834" d="M24.457 61.48a1.574 1.574 0 0 0-1.279-1.078L19.04 59.8l-1.851-3.75a1.574 1.574 0 0 0-1.42-.883c-.608 0-1.152.338-1.42.883l-1.852 3.75-4.139.602c-.6.087-1.09.5-1.278 1.078-.188.577-.034 1.2.4 1.623l2.996 2.92-.707 4.122a1.574 1.574 0 0 0 .63 1.55c.49.356 1.13.402 1.668.12l3.702-1.947 3.702 1.947a1.58 1.58 0 0 0 1.668-.12c.491-.358.733-.952.63-1.55l-.707-4.122 2.995-2.92a1.574 1.574 0 0 0 .4-1.624zm-5.054 3.23a1.584 1.584 0 0 0-.456 1.401l.577 3.362-3.019-1.587a1.583 1.583 0 0 0-1.474 0l-3.02 1.587.577-3.362a1.584 1.584 0 0 0-.455-1.402L9.69 62.328l3.376-.49a1.584 1.584 0 0 0 1.192-.867l1.51-3.059 1.51 3.06c.23.467.676.79 1.192.865l3.376.491-2.443 2.381zM49.126 61.48a1.574 1.574 0 0 0-1.279-1.078l-4.139-.602-1.851-3.75a1.574 1.574 0 0 0-1.42-.883c-.608 0-1.152.338-1.42.883l-1.852 3.75-4.139.602c-.6.087-1.09.5-1.278 1.078-.188.577-.034 1.2.4 1.623l2.996 2.92-.707 4.122a1.574 1.574 0 0 0 .63 1.55c.49.356 1.13.402 1.668.12l3.702-1.946 3.702 1.946a1.579 1.579 0 0 0 1.668-.12c.491-.358.733-.951.63-1.55l-.707-4.122 2.995-2.92a1.574 1.574 0 0 0 .4-1.623zm-5.054 3.23a1.584 1.584 0 0 0-.456 1.401l.577 3.362-3.02-1.587a1.583 1.583 0 0 0-1.473 0l-3.02 1.587.577-3.362a1.584 1.584 0 0 0-.455-1.402l-2.443-2.38 3.376-.491a1.584 1.584 0 0 0 1.192-.867l1.51-3.058 1.51 3.058c.23.468.676.792 1.192.867l3.375.49-2.442 2.381zM73.795 61.48a1.574 1.574 0 0 0-1.279-1.078l-4.14-.602-1.85-3.75a1.574 1.574 0 0 0-1.42-.883c-.608 0-1.152.338-1.42.883l-1.852 3.75-4.139.602c-.6.087-1.09.5-1.278 1.078-.188.577-.034 1.2.4 1.623l2.995 2.92-.707 4.122a1.574 1.574 0 0 0 .63 1.55c.492.356 1.13.402 1.669.12l3.702-1.947 3.702 1.947a1.58 1.58 0 0 0 1.668-.12c.491-.358.732-.951.63-1.55l-.707-4.122 2.995-2.92a1.574 1.574 0 0 0 .4-1.623zm-5.054 3.23a1.584 1.584 0 0 0-.456 1.401l.577 3.362-3.02-1.587a1.583 1.583 0 0 0-1.473 0l-3.02 1.587.577-3.362a1.584 1.584 0 0 0-.455-1.402l-2.443-2.38 3.376-.491a1.584 1.584 0 0 0 1.192-.867l1.51-3.058 1.51 3.058c.23.468.676.792 1.192.867l3.375.49-2.442 2.381z"/>
        <path fill="#000" d="M59.796 40.727a4.766 4.766 0 0 0-.9-.706l-7.33-4.368a5.152 5.152 0 0 0-6.285.795l-1.665 1.685a.39.39 0 0 1-.431.083 23.9 23.9 0 0 1-8.452-6.26 1.05 1.05 0 0 0-1.591 1.368 26.013 26.013 0 0 0 9.2 6.813 2.5 2.5 0 0 0 2.768-.531l1.66-1.68a3.054 3.054 0 0 1 3.723-.47l7.32 4.361c.181.11.348.242.497.39a2.646 2.646 0 0 1-.016 3.744l-1.148 1.175a12.631 12.631 0 0 1-2.922 2.177 1.05 1.05 0 0 0 .997 1.846 14.749 14.749 0 0 0 3.417-2.548l1.147-1.174a4.743 4.743 0 0 0 .01-6.7z"/>
        <path fill="#3D3D3D" d="M51.632 51.48a1.05 1.05 0 0 0-1.216-.851c-2.35.416-4.76.16-6.97-.742a43.75 43.75 0 0 1-14.526-9.64 43.753 43.753 0 0 1-9.64-14.525 12.61 12.61 0 0 1 2.755-13.694l1.182-1.161a2.655 2.655 0 0 1 3.743.008c.149.145.281.307.393.483l4.358 7.302a3.055 3.055 0 0 1-.468 3.724L29.55 24.07a2.502 2.502 0 0 0-.49 2.762c.437.998.942 1.978 1.501 2.913a1.049 1.049 0 1 0 1.8-1.077 23.82 23.82 0 0 1-1.381-2.683l-.007-.015a.387.387 0 0 1 .067-.423l1.684-1.677a5.152 5.152 0 0 0 .79-6.283l-4.367-7.317-.014-.022a4.772 4.772 0 0 0-.701-.868c-1.846-1.838-4.85-1.838-6.69-.005l-1.185 1.164a14.707 14.707 0 0 0-3.22 15.975 45.837 45.837 0 0 0 10.1 15.217 45.84 45.84 0 0 0 15.217 10.1 14.717 14.717 0 0 0 8.128.864c.57-.101.951-.645.85-1.216z"/>
    </g>
</svg>
