<svg xmlns="http://www.w3.org/2000/svg" width="60" height="84" viewBox="0 0 60 84">
    <g fill="none" fill-rule="nonzero">
        <path fill="#3D3D3D" d="M58.749 24.047C56.33 11.127 44.898.4 30.092.4 15.363.4 3.866 11.056 1.435 24.047c-1.969 10.525 1.667 20.925 9.728 27.821 2.676 2.29 4.338 6.043 4.338 9.794v4.876a7.323 7.323 0 0 0 4.864 6.893v.419c0 5.376 4.363 9.75 9.727 9.75 5.363 0 9.727-4.374 9.727-9.75v-.42a7.323 7.323 0 0 0 4.864-6.893v-4.875c0-3.75 1.662-7.504 4.338-9.794 8.06-6.896 11.697-17.296 9.728-27.82zM30.092 78.725c-2.682 0-4.864-2.203-4.864-4.891h9.727c0 2.688-2.181 4.891-4.863 4.891zm9.727-12.188a2.437 2.437 0 0 1-2.432 2.438h-14.59a2.437 2.437 0 0 1-2.432-2.438V64.1h19.454v2.438zm6.045-18.376c-3.191 2.73-5.298 6.745-5.88 11.064H20.2c-.582-4.319-2.69-8.334-5.88-11.064-6.719-5.75-9.749-14.428-8.104-23.215C8.217 14.247 17.673 5.275 30.092 5.275c12.354 0 21.863 8.911 23.876 19.67 1.645 8.788-1.385 17.467-8.104 23.216z"/>
        <path fill="#42A834" d="M44.782 26.052a2.884 2.884 0 0 0-4.02 0l-10.05 9.846-10.048-9.846a2.884 2.884 0 0 0-4.02 0 2.745 2.745 0 0 0 0 3.938l12.06 11.815a2.884 2.884 0 0 0 4.019 0L44.782 29.99a2.746 2.746 0 0 0 0-3.938z"/>
    </g>
</svg>
