<svg xmlns="http://www.w3.org/2000/svg" width="90" height="84" viewBox="0 0 90 84">
    <g fill="none" fill-rule="nonzero">
        <path fill="#42A834" d="M44.945 16.867a1.726 1.726 0 0 1-1.715-1.734c0-.726.453-1.38 1.128-1.63.88-.323 1.906.116 2.813 1.208.61.733 1.691.828 2.417.212.725-.615.82-1.709.21-2.442-.927-1.116-2.006-1.883-3.138-2.268v-.28c0-.957-.768-1.733-1.715-1.733-.947 0-1.715.776-1.715 1.733v.298l-.046.015c-2.024.746-3.384 2.71-3.384 4.887 0 2.868 2.308 5.2 5.145 5.2.946 0 1.715.778 1.715 1.734 0 .698-.411 1.325-1.047 1.597-.768.329-1.687.049-2.522-.77a1.702 1.702 0 0 0-2.425.04 1.746 1.746 0 0 0 .038 2.45c.774.759 1.635 1.294 2.526 1.597v.286c0 .957.768 1.733 1.715 1.733.947 0 1.715-.776 1.715-1.733v-.297a5.188 5.188 0 0 0 3.43-4.903c0-2.868-2.308-5.2-5.145-5.2z"/>
        <path fill="#3D3D3D" d="M45 .4c9.996 0 18.129 8.165 18.129 18.2a18.19 18.19 0 0 1-.884 5.614c8.907 4.269 15.418 12.613 16.44 22.592A7.81 7.81 0 0 0 84.02 39.4c0-1.436 1.16-2.6 2.59-2.6s2.59 1.164 2.59 2.6c0 6.316-4.512 11.593-10.469 12.758-.836 9.776-6.667 18.548-15.602 23.11V81c0 1.436-1.16 2.6-2.59 2.6H50.18a2.595 2.595 0 0 1-2.59-2.6v-2.6H37.23V81c0 1.436-1.16 2.6-2.59 2.6H24.282a2.595 2.595 0 0 1-2.59-2.6v-5.778a29.332 29.332 0 0 1-10.15-8.55 18.229 18.229 0 0 0-6.081-5.196C2.586 59.96.8 57.479.8 55v-4.676a8.334 8.334 0 0 1 6.19-8.053c.405-1.45.945-2.89 1.627-4.346l-7.059-7.712a2.607 2.607 0 0 1 0-3.677C4.985 23.096 8.912 21.2 13.75 21.2c3.305 0 6.597.89 9.366 2.52a29.059 29.059 0 0 1 4.118-1.496 18.273 18.273 0 0 1-.362-3.624C26.871 8.565 35.004.4 45 .4zm-31.25 26c-2.576 0-5.039.753-7.14 2.156l6.998 7.025c.812.815.992 2.07.443 3.082a24.83 24.83 0 0 0-1.841 4.249 7.81 7.81 0 0 1 4.13 6.888c0 1.436-1.16 2.6-2.59 2.6a2.595 2.595 0 0 1-2.59-2.6 2.6 2.6 0 0 0-2.33-2.587 3.122 3.122 0 0 0-2.85 3.111V55c.004.26.554 1.168 1.889 1.872a23.451 23.451 0 0 1 7.82 6.684c2.462 3.305 5.794 5.947 9.635 7.643a2.6 2.6 0 0 1 1.547 2.38V78.4h5.18v-2.6c0-1.436 1.16-2.6 2.59-2.6H50.18c1.43 0 2.59 1.164 2.59 2.6v2.6h5.18v-4.778a2.6 2.6 0 0 1 1.552-2.382c17.814-7.82 19.698-33.176.45-42.362a18.318 18.318 0 0 1-3.559 3.867c.28.416.443.916.443 1.455 0 1.436-1.16 2.6-2.59 2.6H34.642a2.595 2.595 0 0 1-2.59-2.6c0-.8.36-1.514.926-1.991a18.307 18.307 0 0 1-3.985-5.075 24.109 24.109 0 0 0-4.933 1.898 2.581 2.581 0 0 1-2.683-.195c-.189-.134-.334-.264-.43-.35l-.016-.013c-2.037-1.32-4.648-2.074-7.18-2.074zm10.355 16.004a2.417 2.417 0 0 1 2.411 2.423 2.417 2.417 0 0 1-2.41 2.423 2.417 2.417 0 0 1-2.411-2.423 2.417 2.417 0 0 1 2.41-2.423zM45 5.6c-7.14 0-12.95 5.832-12.95 13s5.81 13 12.95 13 12.95-5.832 12.95-13-5.81-13-12.95-13z"/>
    </g>
</svg>
