<svg xmlns="http://www.w3.org/2000/svg" width="70" height="70" viewBox="0 0 70 70">
    <g fill="none" fill-rule="nonzero">
        <path fill="#42A834" d="M57.18 43.781c7.01 0 12.712 5.68 12.712 12.662 0 6.981-5.702 12.661-12.711 12.661-2.333 0-4.614-.635-6.597-1.837a1.023 1.023 0 0 1-.345-1.408 1.032 1.032 0 0 1 1.415-.344 10.664 10.664 0 0 0 5.527 1.539c5.874 0 10.652-4.76 10.652-10.611 0-5.851-4.778-10.611-10.652-10.611s-10.653 4.76-10.653 10.61c0 2.417.797 4.695 2.305 6.588a1.023 1.023 0 0 1-.166 1.44 1.032 1.032 0 0 1-1.447-.165 12.498 12.498 0 0 1-2.75-7.862c0-6.982 5.702-12.662 12.71-12.662zM12.82 0c7.008 0 12.71 5.68 12.71 12.662 0 6.981-5.702 12.661-12.71 12.661-7.01 0-12.712-5.68-12.712-12.661 0-2.976 1.059-5.869 2.981-8.145a1.032 1.032 0 0 1 1.45-.125c.436.365.492 1.012.126 1.445a10.592 10.592 0 0 0-2.498 6.825c0 5.85 4.778 10.61 10.652 10.61s10.653-4.76 10.653-10.61c0-5.851-4.78-10.611-10.653-10.611-1.84 0-3.658.478-5.255 1.382A1.032 1.032 0 0 1 6.16 3.05a1.023 1.023 0 0 1 .386-1.398A12.752 12.752 0 0 1 12.82 0z"/>
        <path fill="#000" d="M21.69 44.677c2.117 0 3.84 1.716 3.84 3.826v17.67c0 2.11-1.723 3.827-3.84 3.827H3.948C1.831 70 .108 68.284.108 66.174V48.503c0-2.11 1.723-3.826 3.841-3.826zm0 2.05H3.948a1.78 1.78 0 0 0-1.782 1.776v17.67c0 .98.8 1.776 1.782 1.776h17.74a1.78 1.78 0 0 0 1.783-1.775V48.503c0-.979-.8-1.775-1.783-1.775zM12.081 27.69c.418-.42 1.039-.438 1.465-.01.038.04 4.14 4.17 4.14 4.17a1.033 1.033 0 0 1-.007 1.45 1.032 1.032 0 0 1-1.456-.008l-2.376-2.392v11.257c0 .566-.46 1.025-1.029 1.025-.568 0-1.03-.459-1.03-1.025V30.899l-2.375 2.392c-.4.402-1.052.406-1.456.007a1.022 1.022 0 0 1-.008-1.45zm45.1-.876c.568 0 1.028.46 1.028 1.025v11.257l2.376-2.392a1.032 1.032 0 0 1 1.456-.007c.397.39.401 1.054.008 1.45l-4.04 4.067-.097.097a1.041 1.041 0 0 1-.732.304c-.277 0-.543-.114-.737-.31l-4.035-4.061-.097-.097a1.023 1.023 0 0 1 .008-1.45 1.032 1.032 0 0 1 1.456.007l2.376 2.392V27.838c0-.566.46-1.025 1.03-1.025zM57.18 1.636c.899 0 1.707.497 2.109 1.298l9.532 18.99c.368.734.33 1.588-.103 2.285a2.345 2.345 0 0 1-2.006 1.114H47.65c-1.719 0-2.88-1.862-2.11-3.399l9.533-18.99a2.346 2.346 0 0 1 2.109-1.298zm.267 2.215a.301.301 0 0 0-.535 0l-9.532 18.99a.288.288 0 0 0 .013.29.29.29 0 0 0 .255.141h19.064c.22 0 .364-.239.268-.43l-9.533-18.99zM38.16 7.82a1.032 1.032 0 0 1 1.456-.007l4.175 4.116c.105.101.188.225.24.361a1.03 1.03 0 0 1-.23 1.097l-4.185 4.125c-.4.395-1.065.386-1.456-.007a1.034 1.034 0 0 1 .008-1.45l2.4-2.367h-11.3c-.569 0-1.03-.46-1.03-1.025 0-.567.461-1.026 1.03-1.026h11.3l-2.4-2.366a1.022 1.022 0 0 1-.008-1.45z"/>
    </g>
</svg>
