<svg xmlns="http://www.w3.org/2000/svg" width="80" height="80" viewBox="0 0 80 80">
    <g fill="none" fill-rule="nonzero">
        <g fill="#000">
            <path d="M67.011 46.981l-.335.181c-1.458-1.75-3.969-2.425-5.882-1.455l-.02.01-.826.445a6.45 6.45 0 0 0-7.368-.653l-4.543 2.47H41.99a8.716 8.716 0 0 1-3.772-.864l-.833-.403a14.32 14.32 0 0 0-14.905 1.455.883.883 0 0 0-.06.05l-2.01 1.79a6.942 6.942 0 0 1-2.59 1.45l-1.134-3.717a.938.938 0 0 0-.896-.664H6.063a.938.938 0 0 0-.93 1.051L8.375 74.71c.057.47.457.824.93.824h14.589a.938.938 0 0 0 .897-1.21l-1.91-6.266 5.947-3.76a3.563 3.563 0 0 1 2.655-.322l12.141 2.235c3.307.592 6.716.11 9.73-1.373a.943.943 0 0 0 .114-.068l21-14.418a.938.938 0 0 0 .272-1.257 5.796 5.796 0 0 0-7.729-2.114zm-5.36.393c1.079-.54 2.434-.108 3.313.712L57.04 52.36l-.435.23a6.936 6.936 0 0 0-1.06-1.926l6.107-3.29zm-8.164-.224l.022-.012a4.573 4.573 0 0 1 4.603.014l-3.982 2.145a6.915 6.915 0 0 0-2.5-1.139l1.857-1.008zM10.135 73.66L7.122 48.95h7.973l7.533 24.708H10.135zm42.327-10.474a13.858 13.858 0 0 1-8.501 1.18l-12.111-2.23a5.43 5.43 0 0 0-4.002.563l-5.535 3.5-3.947-12.945a8.823 8.823 0 0 0 3.29-1.848l1.98-1.764a12.455 12.455 0 0 1 12.932-1.243l.833.403c1.431.69 3 1.05 4.588 1.051h8.077a5.077 5.077 0 0 1 4.972 4.083l-5.814-.263a35.093 35.093 0 0 0-6.377.294.938.938 0 0 0 .258 1.858 33.196 33.196 0 0 1 6.035-.28l6.889.313.042.001c.518 0 .938-.42.938-.937 0-.14-.006-.28-.014-.418l.927-.488 9.98-5.384a3.924 3.924 0 0 1 4.695.73L52.462 63.185z"/>
            <path d="M12.953 69.946a2.883 2.883 0 1 0 5.765-.001 2.883 2.883 0 0 0-5.765 0zm2.883-1.008a1.008 1.008 0 1 1 .001 2.017 1.008 1.008 0 0 1-.002-2.017zM63.023 15.664a.937.937 0 0 0-.937.937v1.563a.938.938 0 0 0 1.875 0V16.6a.937.937 0 0 0-.938-.937zM63.023 20.351a.937.937 0 0 0-.937.938v1.562a.938.938 0 0 0 1.875 0V21.29a.937.937 0 0 0-.938-.938zM59.898 18.789a.938.938 0 0 0 0 1.875h1.563a.937.937 0 1 0 0-1.875h-1.563zM66.148 20.664a.937.937 0 0 0 0-1.875h-1.562a.937.937 0 0 0 0 1.875h1.562zM21.908 5.09a.937.937 0 0 0-.937.938v1.563a.937.937 0 1 0 1.875 0V6.028a.937.937 0 0 0-.938-.937zM21.908 9.778a.937.937 0 0 0-.937.938v1.562a.937.937 0 1 0 1.875 0v-1.562a.937.937 0 0 0-.938-.938zM18.783 8.216a.937.937 0 1 0 0 1.875h1.563a.937.937 0 1 0 0-1.875h-1.563zM25.033 8.216h-1.562a.937.937 0 1 0 0 1.875h1.562a.937.937 0 1 0 0-1.875z"/>
        </g>
        <path fill="#42A834" d="M38.375 41.08c.55.054 1.096.08 1.638.08 8.992-.002 16.341-7.175 16.562-16.164.22-8.99-6.768-16.514-15.75-16.957-8.98-.443-16.676 6.357-17.341 15.325-.665 8.967 5.943 16.829 14.891 17.716zM25.383 23.156c.778-7.884 7.67-13.731 15.575-13.215 7.906.517 13.978 7.212 13.722 15.13-.256 7.92-6.746 14.208-14.67 14.214-.479 0-.963-.024-1.451-.071-8.068-.805-13.962-7.988-13.176-16.058z"/>
        <path fill="#42A834" d="M38.271 32.575l-.132 1.338a.937.937 0 1 0 1.867.184l.132-1.34a4.612 4.612 0 0 0-.037-9.176 2.738 2.738 0 1 1 2.993-2.456.938.938 0 0 0 1.866.184 4.62 4.62 0 0 0-3.215-4.856l.116-1.172a.938.938 0 0 0-1.866-.184l-.116 1.172a4.613 4.613 0 0 0 .037 9.179 2.737 2.737 0 0 1-.51 5.45l-.027-.004-.026-.001a2.74 2.74 0 0 1-2.43-2.99.938.938 0 0 0-1.866-.184 4.62 4.62 0 0 0 3.214 4.856z"/>
    </g>
</svg>
